<svg xmlns="http://www.w3.org/2000/svg" viewBox="0 0 256 256">
  <rect width="256" height="256" rx="64" fill="#14202A"/>
  <circle cx="188" cy="68" r="34" fill="#BF6F3F" fill-opacity="0.88"/>
  <path d="M54 188V64h28.5c15.9 0 28.2 3.3 36.8 9.8 8.6 6.6 12.9 16.2 12.9 28.9 0 13.2-4.3 23.1-12.9 29.6-8.6 6.5-21 9.8-37.1 9.8H74.6V188H54Zm20.6-63.7h7.8c10.6 0 18.4-1.6 23.2-4.8 4.9-3.3 7.3-8.8 7.3-16.6 0-7.5-2.4-12.8-7.2-15.8-4.8-3.1-12.3-4.6-22.5-4.6h-8.6v41.8Z" fill="#FCFAF6"/>
  <path d="M143 188V64h20.6v106.2h38.4V188H143Z" fill="#FCFAF6"/>
</svg>
